<svg xmlns="http://www.w3.org/2000/svg" xmlns:xlink="http://www.w3.org/1999/xlink" width="1000" zoomAndPan="magnify" viewBox="0 0 750 749.999995" height="1000" preserveAspectRatio="xMidYMid meet" version="1.0"><defs><clipPath id="50ced99f50"><path d="M 90.839844 49 L 699.839844 49 L 699.839844 660.808594 L 90.839844 660.808594 Z M 90.839844 49 " clip-rule="nonzero"/></clipPath></defs><g clip-path="url(#50ced99f50)"><path fill="#65cf72" d="M 611.046875 137.980469 C 553.808594 80.714844 477.691406 49.117188 396.582031 49.117188 C 229.460938 49.117188 93.445312 185.03125 93.382812 352.117188 C 93.382812 405.515625 107.328125 457.671875 133.863281 503.601562 L 90.839844 660.621094 L 251.578125 618.46875 C 295.867188 642.628906 345.726562 655.328125 396.460938 655.359375 L 396.582031 655.359375 C 563.671875 655.359375 699.71875 519.414062 699.75 352.359375 C 699.75 271.386719 668.289062 195.28125 611.019531 137.980469 Z M 396.582031 604.199219 L 396.492188 604.199219 C 351.292969 604.199219 306.910156 592.042969 268.21875 569.09375 L 259.019531 563.621094 L 163.632812 588.628906 L 189.074219 495.679688 L 183.085938 486.15625 C 157.851562 446.0625 144.542969 399.710938 144.570312 352.117188 C 144.632812 213.269531 257.6875 100.277344 396.671875 100.277344 C 463.988281 100.277344 527.246094 126.523438 574.835938 174.144531 C 622.421875 221.738281 648.59375 285.023438 648.5625 352.328125 C 648.5 491.203125 535.445312 604.199219 396.550781 604.199219 Z M 534.808594 415.582031 C 527.246094 411.804688 490.003906 393.480469 483.046875 390.972656 C 476.085938 388.429688 471.066406 387.191406 466.011719 394.75 C 460.960938 402.339844 446.441406 419.394531 442.023438 424.441406 C 437.605469 429.492188 433.1875 430.128906 425.59375 426.316406 C 418.03125 422.539062 393.617188 414.523438 364.664062 388.734375 C 342.15625 368.65625 326.9375 343.863281 322.523438 336.273438 C 318.105469 328.683594 322.066406 324.601562 325.851562 320.820312 C 329.238281 317.433594 333.414062 311.960938 337.226562 307.546875 C 341.007812 303.132812 342.277344 299.957031 344.789062 294.910156 C 347.328125 289.859375 346.058594 285.445312 344.152344 281.636719 C 342.246094 277.855469 327.121094 240.574219 320.796875 225.425781 C 314.65625 210.671875 308.394531 212.664062 303.765625 212.425781 C 299.347656 212.210938 294.296875 212.152344 289.242188 212.152344 C 284.191406 212.152344 275.992188 214.027344 269.035156 221.617188 C 262.074219 229.207031 242.53125 247.527344 242.53125 284.78125 C 242.53125 322.03125 269.667969 358.042969 273.480469 363.121094 C 277.261719 368.171875 326.910156 444.640625 402.90625 477.449219 C 420.964844 485.25 435.09375 489.90625 446.105469 493.414062 C 464.257812 499.1875 480.777344 498.371094 493.816406 496.40625 C 508.367188 494.230469 538.621094 478.082031 544.945312 460.394531 C 551.265625 442.707031 551.265625 427.558594 549.363281 424.382812 C 547.457031 421.207031 542.402344 419.332031 534.839844 415.523438 Z M 534.808594 415.582031 " fill-opacity="1" fill-rule="evenodd"/></g></svg>